{
  "accessors": [
    {
      "bufferView": 1,
      "componentType": 5126,
      "count": 62295,
      "max": [
        50.0,
        50.0,
        78.0
      ],
      "min": [
        -50.0,
        -50.0,
        4.0
      ],
      "type": "VEC3"
    },
    {
      "bufferView": 1,
      "byteOffset": 747540,
      "componentType": 5126,
      "count": 62295,
      "max": [
        1.0,
        1.0,
        1.0
      ],
      "min": [
        -1.0,
        -1.0,
        -1.0
      ],
      "type": "VEC3"
    },
    {
      "bufferView": 2,
      "componentType": 5126,
      "count": 62295,
      "max": [
        1.0,
        1.0,
        0.9333333373069763,
        1.0
      ],
      "min": [
        0.0,
        0.0,
        0.0,
        1.0
      ],
      "type": "VEC4"
    },
    {
      "bufferView": 0,
      "componentType": 5125,
      "count": 318360,
      "type": "SCALAR"
    }
  ],
  "asset": {
    "extras": {
      "author": "rifatnajmi (https://sketchfab.com/rifatnajmi)",
      "license": "CC-BY-4.0 (http://creativecommons.org/licenses/by/4.0/)",
      "source": "https://sketchfab.com/3d-models/monumen-nasional-jakarta-f52e95bbbb7b4499a1952cd36b7824e7",
      "title": "Monumen Nasional - Jakarta"
    },
    "generator": "Sketchfab-12.66.0",
    "version": "2.0"
  },
  "bufferViews": [
    {
      "buffer": 0,
      "byteLength": 1273440,
      "name": "floatBufferViews",
      "target": 34963
    },
    {
      "buffer": 0,
      "byteLength": 1495080,
      "byteOffset": 1273440,
      "byteStride": 12,
      "name": "floatBufferViews",
      "target": 34962
    },
    {
      "buffer": 0,
      "byteLength": 996720,
      "byteOffset": 2768520,
      "byteStride": 16,
      "name": "floatBufferViews",
      "target": 34962
    }
  ],
  "buffers": [
    {
      "byteLength": 3765240,
      "uri": "scene.bin"
    }
  ],
  "materials": [
    {
      "doubleSided": true,
      "name": "Scene_-_Root",
      "pbrMetallicRoughness": {
        "metallicFactor": 0.09317835365853659,
        "roughnessFactor": 0.8370807926829268
      }
    }
  ],
  "meshes": [
    {
      "name": "Object_0",
      "primitives": [
        {
          "attributes": {
            "COLOR_0": 2,
            "NORMAL": 1,
            "POSITION": 0
          },
          "indices": 3,
          "material": 0,
          "mode": 4
        }
      ]
    }
  ],
  "nodes": [
    {
      "children": [
        1
      ],
      "matrix": [
        1.0,
        -9.41443874829975e-16,
        -1.9067404406459405e-18,
        0.0,
        3.0997253422832376e-18,
        0.005317830480635388,
        -0.9999858736991882,
        0.0,
        9.414406984564229e-16,
        0.9999858736991882,
        0.005317830480635388,
        0.0,
        -3.859910505913007e-14,
        0.000579608953557957,
        -0.21803124248981476,
        1.0
      ],
      "name": "Sketchfab_model"
    },
    {
      "children": [
        2
      ],
      "name": "Geode"
    },
    {
      "mesh": 0,
      "name": "Object_2"
    }
  ],
  "scene": 0,
  "scenes": [
    {
      "name": "Sketchfab_Scene",
      "nodes": [
        0
      ]
    }
  ]
}
